<svg width="18" height="18" viewBox="0 0 18 18" fill="none" xmlns="http://www.w3.org/2000/svg">
    <path d="M17.3174 9.37078C17.3174 8.79446 17.2706 8.21502 17.171 7.64804H9.17407V10.9128H13.7535C13.5635 11.9658 12.9529 12.8973 12.0588 13.4892V15.6075H14.7909C16.3953 14.1309 17.3174 11.9502 17.3174 9.37078Z"
          fill="#4285F4"/>
    <path d="M9.1741 17.6543C11.4607 17.6543 13.3891 16.9035 14.794 15.6075L12.062 13.4892C11.3018 14.0063 10.3205 14.2991 9.17722 14.2991C6.96538 14.2991 5.08999 12.8069 4.41709 10.8007H1.59778V12.9845C3.03703 15.8474 5.96849 17.6543 9.1741 17.6543Z"
          fill="#34A853"/>
    <path d="M4.41399 10.8007C4.05885 9.74771 4.05885 8.60752 4.41399 7.55456V5.37076H1.59779C0.3953 7.7664 0.3953 10.5888 1.59779 12.9845L4.41399 10.8007Z"
          fill="#FBBC04"/>
    <path d="M9.1741 4.05301C10.3828 4.03432 11.551 4.48915 12.4264 5.32404L14.847 2.90348C13.3143 1.46422 11.28 0.672945 9.1741 0.697867C5.96849 0.697867 3.03703 2.50472 1.59778 5.37077L4.41398 7.55457C5.08376 5.54522 6.96226 4.05301 9.1741 4.05301Z"
          fill="#EA4335"/>
</svg>
